<?xml version="1.0" encoding="utf-8"?>
<!-- Generator: Adobe Illustrator 27.4.1, SVG Export Plug-In . SVG Version: 6.00 Build 0)  -->
<svg version="1.1" id="Layer_1" xmlns="http://www.w3.org/2000/svg" xmlns:xlink="http://www.w3.org/1999/xlink" x="0px" y="0px"
	 viewBox="0 0 612 792" style="enable-background:new 0 0 612 792;" xml:space="preserve">
<style type="text/css">
	.st0{fill:#F06541;stroke:#000000;stroke-width:6;stroke-miterlimit:10;}
	.st1{fill:#E4CFB6;}
	.st2{fill:none;stroke:#333333;stroke-width:6;stroke-miterlimit:10;}
	.st3{fill:none;stroke:#333333;stroke-miterlimit:10;}
	.st4{fill:#EAD9C5;stroke:#333333;stroke-width:6;stroke-miterlimit:10;}
	.st5{fill:none;stroke:#F06541;stroke-width:6;stroke-miterlimit:10;}
	.st6{fill:#799DAB;stroke:#333333;stroke-width:6;stroke-miterlimit:10;}
	.st7{fill:#FAC3BA;stroke:#333333;stroke-width:6;stroke-miterlimit:10;}
</style>
<circle class="st0" cx="304" cy="396.5" r="296"/>
<polygon class="st1" points="282.84,466.48 326,373.09 230.16,263.6 182.05,325.09 "/>
<polygon class="st1" points="79.19,551.61 306,560.24 227.72,260 87.32,260 "/>
<polygon class="st1" points="166.06,553.22 530.11,544.8 467.54,260 275.4,260 "/>
<path class="st2" d="M115,497.09"/>
<path class="st2" d="M350,576"/>
<polyline class="st2" points="449.3,260 275.4,260 258.85,295 227.72,260 160,260 "/>
<path class="st3" d="M266,260"/>
<path class="st3" d="M211,260"/>
<path class="st2" d="M350,576"/>
<path class="st4" d="M530.11,544.8c0.02-15.18,0.05-30.36,0.07-45.54c0.07-45.01,0.14-90.03,0.21-135.04
	c0.05-29.42-0.42-58.64,1.95-87.94c0.83-10.24,0.51-21-4.27-30.1c-9.68-18.4-35.96-28.84-55.37-21.29
	c-4.18,1.63-23.4,11.19-23.4,17.11c0,0.64,0,294.5,0,294.5c0-23.43,18.19-41.01,41.89-40.01c17.72,0.75,31.99,11.79,37.11,28.5
	C530.64,532.65,531.04,539.2,530.11,544.8C525.9,570.29,494.3,576,494.3,576c-12.14,0-85.3,0-85.3,0l-34-24c0,0-26.25,24-26.25,24
	c-18.38,0-233.75,0-233.75,0s-31.6-5.71-35.81-31.2c-0.93-5.6-0.53-12.15,1.81-19.81c4.93-16.11,18.63-27.14,35.71-28.46
	c24.16-1.87,43.29,16.07,43.29,39.96c0,0,0-293.86,0-294.5c0-5.92-19.23-15.48-23.4-17.11c-19.41-7.56-45.69,2.89-55.37,21.29
	c-4.78,9.09-5.1,19.86-4.27,30.1c2.37,29.31,1.9,58.52,1.95,87.94c0.07,45.01,0.14,90.03,0.21,135.04
	c0.02,15.18,0.05,30.36,0.07,45.54"/>
<line class="st5" x1="200" y1="489" x2="226" y2="515"/>
<line class="st5" x1="228" y1="485" x2="200" y2="515"/>
<path class="st2" d="M247,502c50.8,0,110.33,13.88,159.94,0.63c21.93-5.86,17.22-36.28-1.85-42.78
	c-30.49-10.39-65.64-0.5-97.11-0.16c-7.03,0.08-14.27-0.07-20.73-2.84c-6.46-2.77-12-8.81-12.11-15.83
	c-0.14-8.51,7.62-15.38,15.81-17.68c8.19-2.3,16.89-1.27,25.4-1.27c14.68,0,34.75-3.49,45.39-14.85c4.48-4.78,6.47-12.58,2.74-17.97
	c-2.51-3.61-7.01-5.38-11.39-5.8c-4.38-0.41-8.78,0.32-13.16,0.67c-6.47,0.53-13.09,0.22-19.3-1.68c-3.52-1.07-7.23-3.02-8.35-6.53
	c-3.95-12.31,31.92-10.17,37.69-8.58"/>
<polygon class="st6" points="238.81,321.22 285.65,381.22 194.45,381.22 "/>
<polygon class="st6" points="182.05,382.07 214.04,337.07 242.83,382.07 "/>
<rect x="326" y="321.22" class="st7" width="53.5" height="30"/>
<polyline class="st7" points="326,321.22 351.89,294.81 379.5,321.22 "/>
<polygon class="st6" points="400.3,398.91 409.46,365.24 417.7,398.91 "/>
<line class="st2" x1="409" y1="421.52" x2="409" y2="398.91"/>
<polygon class="st6" points="420.87,440.6 430.03,406.93 438.27,440.6 "/>
<line class="st2" x1="429.57" y1="463.21" x2="429.57" y2="440.6"/>
</svg>
