<?xml version="1.0" encoding="iso-8859-1"?>
<!-- Generator: Adobe Illustrator 27.4.1, SVG Export Plug-In . SVG Version: 6.00 Build 0)  -->
<!DOCTYPE svg PUBLIC "-//W3C//DTD SVG 1.1//EN" "http://www.w3.org/Graphics/SVG/1.1/DTD/svg11.dtd" [
	<!ENTITY st0 "fill:#BCCBD2;stroke:#333333;stroke-width:6;stroke-miterlimit:10;">
	<!ENTITY st1 "fill:#E6D1B6;stroke:#333333;stroke-miterlimit:10;">
	<!ENTITY st2 "fill:#799DAB;stroke:#333333;stroke-width:6;stroke-miterlimit:10;">
	<!ENTITY st3 "fill:none;stroke:#333333;stroke-width:6;stroke-miterlimit:10;">
	<!ENTITY st4 "fill:#C2B2A1;">
	<!ENTITY st5 "fill:#FAC3BA;stroke:#333333;stroke-width:6;stroke-miterlimit:10;">
	<!ENTITY st6 "fill:#F26743;stroke:#333333;stroke-width:6;stroke-miterlimit:10;">
	<!ENTITY st7 "fill:#FFFFFF;stroke:#333333;stroke-miterlimit:10;">
	<!ENTITY st8 "fill:#7CA0AE;stroke:#333333;stroke-width:6;stroke-miterlimit:10;">
	<!ENTITY st9 "fill:#ED1C24;">
	<!ENTITY st10 "fill:#C6AC16;">
	<!ENTITY st11 "fill:none;">
	<!ENTITY st12 "fill:#333333;">
	<!ENTITY st13 "font-family:'MyriadPro-Regular';">
	<!ENTITY st14 "font-size:32px;">
	<!ENTITY st15 "fill:#67AA57;">
]>
<svg version="1.1" id="Layer_1" xmlns="http://www.w3.org/2000/svg" xmlns:xlink="http://www.w3.org/1999/xlink" x="0px" y="0px"
	 viewBox="0 0 1094 792" style="enable-background:new 0 0 1094 792;" xml:space="preserve">
<rect style="&st0;" width="1094" height="192.9"/>
<path style="&st1;" d="M1104.3,156.4c-9.3-9.8-33.9-27.1-42.6-47c-13.3-30.6-43.2-47.7-74.3-55.7C901.5,31.5,820.9,62,742.6,94
	c-36,14.7-73.5,23.9-112.2,27.4c-64,5.9-129.9-1.1-191.1-20.7C293.1,53.9,0,109.4,0,109.4V792h1094L1104.3,156.4z"/>
<g>
	<polygon style="&st2;" points="561.6,425.5 575.6,373.9 588.2,425.5 	"/>
	<line style="&st3;" x1="574.9" y1="425.5" x2="574.9" y2="455.7"/>
</g>
<path style="&st4;" d="M1111.3,695.9c0-3.5-12.3-38.2-16.6-40.2c-13.6-6.1-30.7,3.4-44.6,4.3c-18.7,1.3-34-4-51.4-9.7
	c-19.5-6.4-40.6-9.4-60.9-11.8c-30.8-3.6-62.3-3.3-92.7,3.2c-14.9,3.2-42.4,5.9-48.3,22.9c-2.3,6.5-1.9,13.6-1.8,20.5
	c0.2,11.4-1.7,22.3-9.7,30.9c-7.4,8-17.3,13.2-27.4,17.3c-10.1,4.1-20.6,7.3-30.3,12.2c-1.8,0.9-3.7,2-4.4,3.9
	c-2.1,5.6,9.6,6.8,12.6,7.4c61.8,12,124.6,0.8,186.7,9.7c32.1,4.6,63.8,11.7,95.2,19.5c8.5,2.1,94.3,20.6,94.3,24
	C1112,809.9,1111.3,695.9,1111.3,695.9z"/>
<path style="&st4;" d="M4.6,482.3c0,0,302.6-144.8,416.4-48c38.1,32.4,63.1,78,50.8,128.7c-7.8,32.2-34.4,55.1-45.4,85.8
	c-6.3,17.7-10.1,37.7-9.5,56.5c1.8,49.4,39.5,76.3,85.4,84.3c6.3,1.1,12.6,1.9,19,2.4H0.7L4.6,482.3z"/>
<path style="&st3;" d="M1170.1,156.4"/>
<path style="&st3;" d="M0,109.4c0,0,293.1-55.5,439.3-8.6c61.2,19.6,127.1,26.6,191.1,20.7c38.7-3.6,76.2-12.7,112.2-27.4
	c78.3-32,158.9-62.5,244.8-40.4c31.1,8,61,25.1,74.3,55.7c8.7,20,33.3,37.2,42.6,47"/>
<g>
	<polygon style="&st2;" points="598.4,424.4 607.5,390.8 615.8,424.4 	"/>
	<line style="&st3;" x1="607.1" y1="424.4" x2="607.1" y2="444.1"/>
</g>
<g>
	<polygon style="&st2;" points="567.1,451.1 576.3,417.4 584.5,451.1 	"/>
	<line style="&st3;" x1="575.8" y1="451.1" x2="575.8" y2="470.8"/>
</g>
<rect x="210.6" y="370.4" style="&st5;" width="127.8" height="127.8"/>
<rect x="158.8" y="427.6" style="&st6;" width="51.8" height="63.6"/>
<polygon style="&st6;" points="210.6,370.4 274.5,316.5 338.4,370.4 "/>
<path style="&st3;" d="M945,508.7c2.1-38.7,10.1-84.7,39.8-112.5c13.1-12.2,36.2-23.7,53.8-13.7c16.8,9.5,9.3,26.8-2.4,37.2
	c-29.4,26.2-87.2,39.4-124.9,40.4c-10,0.3-19.4-4.2-25.1-12.7c-7-10.4-8.2-23.7-8.2-36.2c0-42.1,9.7-83.5,17.3-124.9
	c6.2-33.6-22.4-51.9-48.9-27.9c-18.8,17-12.6,38.9-10.8,61c5.1,62.8-11.5,135.8-38.2,192.6c-9,19.2-21.3,37.5-37.7,51.1
	c-12,9.9-32.2,23.5-48.6,19.5c-30.5-7.5-12.1-56.9-6.5-75.7c12.4-41.5,13.6-86.2,5.9-129c-7.5-41.6-18.5-84.2-43.5-119
	c-8.6-12-20.1-23.2-34.6-25.6c-44.8-7.3-73,48.5-87.3,81.6c-34.8,80.7-40.1,171.8-32.3,258.4c1.1,12.4,2.5,25,0.4,37.3
	c-6.1,35.6-48.5,53.4-78.8,63.8c-36.8,12.7-76,18.3-114.8,20.7c-68.6,4.2-154.7,2.6-215.5-34.1c-57.5-34.7-17.7-83.8,23.6-112.5
	c57-39.6,139.1-34.8,205.1-32.6c17.7,0.6,35.7,0.3,52.4-5.5c19.8-6.8,34-21,40.9-40.6c17.2-48.8,18.8-119.9-23.7-156.5
	c-49.7-42.7-122.5-17.2-181.4-14.2c-62.4,3.2-129-2.1-180-42c-17.6-13.8-32.8-34.5-16.8-55.3c18.3-23.9,56.2-33.2,83.6-40
	c49.3-12.2,100.5-17,151.1-18.9c72.6-2.7,145.5,0.8,217.3,11.7c26.9,4.1,53.4,9.6,79.9,15.5c33.5,7.4,66.7,17.8,101.1,19.7
	c35.6,1.9,68.5-8.6,102.3-18.2c25.3-7.1,50.5-14.5,75.7-21.8c8.4-2.4,27.8-12.1,36.7-9.6"/>
<polygon style="&st2;" points="222,64.3 329.7,202.3 120,202.3 "/>
<polygon style="&st2;" points="78.5,212.9 152.1,109.4 218.3,212.9 "/>
<polygon style="&st2;" points="637.1,482.3 646.3,448.7 654.5,482.3 "/>
<polygon style="&st2;" points="657.7,524 666.9,490.3 675.1,524 "/>
<path style="&st2;" d="M412.8,581.6c8.9,16.5-17.1,20.9-74.4,22.1c-77.3,1.6-96.2,1.5-74.4-22.1c8.3-9,33.3-22.1,74.4-22.1
	S407,570.9,412.8,581.6z"/>
<rect x="872.9" y="109.4" style="&st5;" width="63.6" height="51.8"/>
<rect x="581.7" y="294.9" style="&st5;" width="48.5" height="48.5"/>
<polygon style="&st7;" points="579.5,294.9 604.9,268 630.2,294.9 "/>
<ellipse style="&st8;" cx="921.7" cy="584.4" rx="116.5" ry="77.2"/>
<polygon style="&st2;" points="548,432.2 557.1,398.5 565.4,432.2 "/>
<polygon style="&st2;" points="548,432.2 557.1,398.5 565.4,432.2 "/>
<polygon style="&st2;" points="548,432.2 557.1,398.5 565.4,432.2 "/>
<polygon style="&st2;" points="548,432.2 557.1,398.5 565.4,432.2 "/>
<polygon style="&st2;" points="548,432.2 557.1,398.5 565.4,432.2 "/>
<g>
	<polygon style="&st2;" points="548,432.2 557.1,398.5 565.4,432.2 	"/>
	<line style="&st3;" x1="556.7" y1="432.2" x2="556.7" y2="451.8"/>
</g>
<line style="&st3;" x1="645.8" y1="482.3" x2="645.8" y2="496.6"/>
<line style="&st3;" x1="665.3" y1="524" x2="665.3" y2="537.6"/>
<g>
	<polygon style="&st2;" points="603.6,489.2 616.9,440.5 628.8,489.2 	"/>
	<line style="&st3;" x1="616.2" y1="489.2" x2="616.2" y2="517.6"/>
</g>
<g>
	<polygon style="&st2;" points="585.4,445.9 594.5,412.2 602.8,445.9 	"/>
	<line style="&st3;" x1="594.1" y1="445.9" x2="594.1" y2="465.6"/>
</g>
<g>
	<polygon style="&st2;" points="565.4,485.5 574.5,451.8 582.8,485.5 	"/>
	<line style="&st3;" x1="574.1" y1="485.5" x2="574.1" y2="505.2"/>
</g>
<g>
	<polygon style="&st2;" points="589.7,489.3 598.8,455.7 607.1,489.3 	"/>
	<line style="&st3;" x1="598.4" y1="489.3" x2="598.4" y2="509"/>
</g>
<g>
	<polygon style="&st2;" points="621,449 630.2,415.3 638.4,449 	"/>
	<line style="&st3;" x1="629.7" y1="449" x2="629.7" y2="468.7"/>
</g>
<g>
	<polygon style="&st2;" points="526,475.7 535.1,442 543.4,475.7 	"/>
	<line style="&st3;" x1="534.7" y1="475.7" x2="534.7" y2="495.3"/>
</g>
<g>
	<polygon style="&st2;" points="611.3,370.6 620.5,337 628.7,370.6 	"/>
	<line style="&st3;" x1="620" y1="370.6" x2="620" y2="390.3"/>
</g>
<g>
	<polygon style="&st2;" points="638.4,411.3 647.6,377.6 655.8,411.3 	"/>
	<line style="&st3;" x1="647.1" y1="411.3" x2="647.1" y2="431"/>
</g>
<g>
	<polygon style="&st2;" points="657.1,337 666.3,303.4 674.5,337 	"/>
	<line style="&st3;" x1="665.8" y1="337" x2="665.8" y2="356.7"/>
</g>
<g>
	<polygon style="&st2;" points="662.4,443.4 671.6,409.7 679.8,443.4 	"/>
	<line style="&st3;" x1="671.1" y1="443.4" x2="671.1" y2="463.1"/>
</g>
<g>
	<polygon style="&st2;" points="615.8,540.4 627.7,496.6 638.4,540.4 	"/>
	<line style="&st3;" x1="627.1" y1="540.4" x2="627.1" y2="566"/>
</g>
<g>
	<polygon style="&st2;" points="574.1,537.1 583.2,503.4 591.5,537.1 	"/>
	<line style="&st3;" x1="582.8" y1="537.1" x2="582.8" y2="556.7"/>
</g>
<g>
	<polygon style="&st2;" points="537.9,554.1 549,513.4 558.9,554.1 	"/>
	<line style="&st3;" x1="548.4" y1="554.1" x2="548.4" y2="577.9"/>
</g>
<g>
	<polygon style="&st2;" points="598.4,568 607.5,534.4 615.8,568 	"/>
	<line style="&st3;" x1="607.1" y1="568" x2="607.1" y2="587.7"/>
</g>
<g>
	<polygon style="&st2;" points="637.1,517.6 646.3,484 654.5,517.6 	"/>
	<line style="&st3;" x1="645.8" y1="517.6" x2="645.8" y2="537.3"/>
</g>
<g>
	<polygon style="&st2;" points="642.7,580.8 651.9,547.1 660.1,580.8 	"/>
	<line style="&st3;" x1="651.4" y1="580.8" x2="651.4" y2="600.4"/>
</g>
<path style="&st6;" d="M609.3,267.9l25.2-0.9c1.7-0.1,3.4,0.5,4.8,1.5l23.1,17.8l-32.2,8.6l-22.3-23.6
	C606.7,270,607.6,267.9,609.3,267.9z"/>
<polygon style="&st6;" points="630.2,343.4 658.5,328.9 658.5,287.3 632.4,294.9 "/>
<polygon style="&st5;" points="579.7,294.9 603.8,266.9 630.2,294.9 "/>
<g>
	<polygon style="&st2;" points="722.9,328.6 732.1,294.9 740.3,328.6 	"/>
	<line style="&st3;" x1="731.6" y1="328.6" x2="731.6" y2="348.2"/>
</g>
<g>
	<polygon style="&st2;" points="946.2,168.1 955.3,134.5 963.6,168.1 	"/>
	<line style="&st3;" x1="954.9" y1="168.1" x2="954.9" y2="187.8"/>
</g>
<g>
	<polygon style="&st2;" points="91.5,507.8 100.6,474.1 108.9,507.8 	"/>
	<line style="&st3;" x1="100.2" y1="507.8" x2="100.2" y2="527.5"/>
</g>
<g>
	<polygon style="&st2;" points="346,228.9 355.1,195.2 363.4,228.9 	"/>
	<line style="&st3;" x1="354.7" y1="228.9" x2="354.7" y2="248.6"/>
</g>
<g>
	<polygon style="&st2;" points="714.2,703.4 723.4,669.8 731.6,703.4 	"/>
	<line style="&st3;" x1="722.9" y1="703.4" x2="722.9" y2="723.1"/>
</g>
<path style="&st9;" d="M862.6,165.2l-3.5,8.3l-8.2,19.4l-8.2-19.4l-3.5-8.3c0-6.4,5.2-11.7,11.7-11.7
	C857.4,153.5,862.6,158.8,862.6,165.2z"/>
<rect x="821.9" y="504.3" style="&st5;" width="45.8" height="45.8"/>
<polygon style="&st6;" points="816.6,506.1 843.7,483.2 870.8,506.1 "/>
<rect x="850.9" y="536.7" style="&st5;" width="45.8" height="45.8"/>
<polygon style="&st6;" points="844.8,539.3 873.8,514.8 902.8,539.3 "/>
<rect x="977.8" y="502" style="&st5;" width="45.8" height="64.8"/>
<polygon style="&st6;" points="974.5,504.1 1001.1,472.4 1027.6,504.1 "/>
<rect x="954.9" y="546.3" style="&st5;" width="45.8" height="45.8"/>
<polygon style="&st6;" points="950.2,547.3 977.9,523.9 1005.7,547.3 "/>
<rect x="832.3" y="569.9" style="&st5;" width="22.9" height="22.9"/>
<polygon style="&st6;" points="829.2,571.2 843.7,558.9 858.2,571.2 "/>
<polygon style="&st6;" points="869.9,109.4 905.5,79.3 941.1,109.4 "/>
<g>
	<polygon style="&st2;" points="565.4,611.3 574.5,577.6 582.8,611.3 	"/>
	<line style="&st3;" x1="574.1" y1="611.3" x2="574.1" y2="631"/>
</g>
<g>
	<polygon style="&st2;" points="624,612.1 635.2,570.8 645.3,612.1 	"/>
	<line style="&st3;" x1="634.7" y1="612.1" x2="634.7" y2="636.3"/>
</g>
<g>
	<polygon style="&st2;" points="532.8,631.2 542,597.5 550.2,631.2 	"/>
	<line style="&st3;" x1="541.5" y1="631.2" x2="541.5" y2="650.9"/>
</g>
<g>
	<polygon style="&st2;" points="676,618.3 685.1,584.7 693.4,618.3 	"/>
	<line style="&st3;" x1="684.7" y1="618.3" x2="684.7" y2="638"/>
</g>
<g>
	<polygon style="&st2;" points="597.2,671.3 608.9,628.2 619.5,671.3 	"/>
	<line style="&st3;" x1="608.4" y1="671.3" x2="608.4" y2="696.4"/>
</g>
<circle style="&st10;" cx="23.3" cy="17.4" r="46.9"/>
<path style="&st10;" d="M557.2,332.6l-4.7,11.2l-11,26.1l-11-26.1l-4.7-11.2c0-8.6,7-15.7,15.7-15.7
	C550.2,317,557.2,324,557.2,332.6z"/>
<rect x="535.8" y="324.4" style="&st11;" width="20.5" height="47.5"/>
<text transform="matrix(1 0 0 1 535.7531 347.1512)" style="&st12; &st13; &st14;">?</text>
<g>
	<polygon style="&st2;" points="363.4,243.8 374.7,202.2 384.8,243.8 	"/>
	<line style="&st3;" x1="374.1" y1="243.8" x2="374.1" y2="268"/>
</g>
<g>
	<polygon style="&st2;" points="764.2,334.2 772,305.4 779.1,334.2 	"/>
	<line style="&st3;" x1="771.6" y1="334.2" x2="771.6" y2="351"/>
</g>
<g>
	<polygon style="&st2;" points="740.3,339.2 752.3,294.9 763.2,339.2 	"/>
	<line style="&st3;" x1="751.7" y1="339.2" x2="751.7" y2="365.1"/>
</g>
<path style="&st15;" d="M380.6,471.5l-4.7,11.2l-11,26.1l-11-26.1l-4.7-11.2c0-8.6,7-15.7,15.7-15.7
	C373.6,455.9,380.6,462.9,380.6,471.5z"/>
<rect x="361" y="465.6" style="&st11;" width="20.5" height="47.5"/>
<text transform="matrix(1 0 0 1 361.0353 488.3312)" style="&st12; &st13; &st14;">!</text>
<polygon style="&st2;" points="161.8,249.1 235.4,145.6 301.6,249.1 "/>
<rect x="0.7" style="&st3;" width="1094" height="792"/>
</svg>
