<?xml version="1.0" encoding="utf-8"?>
<!-- Generator: Adobe Illustrator 27.4.1, SVG Export Plug-In . SVG Version: 6.00 Build 0)  -->
<svg version="1.1" id="Layer_1" xmlns="http://www.w3.org/2000/svg" xmlns:xlink="http://www.w3.org/1999/xlink" x="0px" y="0px"
	 viewBox="0 0 612 792" style="enable-background:new 0 0 612 792;" xml:space="preserve">
<style type="text/css">
	.st0{fill:#FAC3BA;stroke:#000000;stroke-width:6;stroke-miterlimit:10;}
	.st1{fill:#789CAA;}
	.st2{fill:#E6D1B6;}
	.st3{fill:#B7A894;}
	.st4{fill:#E6D1B6;stroke:#010101;stroke-width:6;stroke-miterlimit:10;}
	.st5{fill:none;stroke:#010101;stroke-width:6;stroke-miterlimit:10;}
	.st6{fill:none;}
	.st7{fill:#F26643;}
	.st8{font-family:'ArialMT';}
	.st9{font-size:218px;}
	.st10{fill:none;stroke:#000000;stroke-width:6;stroke-miterlimit:10;}
</style>
<circle class="st0" cx="304" cy="396.5" r="296"/>
<polygon class="st1" points="296.6,348.5 296.1,347 296.6,347.4 "/>
<path class="st1" d="M374.9,173.5c-4.1-1.5-8.2-2.5-12.3-3.1l11.6-0.9L374.9,173.5z"/>
<polygon class="st1" points="296.6,348.5 296.1,347 296.6,347.4 "/>
<polygon class="st1" points="296.6,348.5 296.1,347 296.6,347.4 "/>
<path class="st2" d="M435.5,497c-0.8-3.8-1.5-7.5-2.3-11.3c-0.2-4,0-8.1,0.1-11.9c0.7-16.8,2.5-33.5,1.3-50.1
	c2.1-0.8,3.6-2.9,2.6-5.7c-1.1-2.9,1-6.1,1.4-9c0.4-2.7,0.2-5.5-1.2-7.9c-0.3-0.5-0.6-1-1-1.4c8.8-38.7,12-84,12-111.3
	c0-47.2-34.8-100.7-73.6-114.8c-4.1-1.5-8.2-2.5-12.3-3.1l-20.8,1.6L172,185.5l40,23.5l11.2,24.7c-0.4,21.3,0.2,53.4-1.9,81
	c-17.9,37.4-50.8,120.3-40.1,206.4c-0.1,2.3-0.2,4.6-0.2,6.9c0,60.2,39.4,109,88,109s88-48.8,88-109c2.5,4,73.1-9.9,73.1-14.7
	c1.4,2.3,3.1,4.4,5.5,6.2c1.9,1.4,4.5,0.5,6.1-0.8c7.9-6.6-1.9-13.5-5-19.2C436.2,498.7,435.9,497.9,435.5,497z M296.1,347l0.5,0.4
	l0,1.1L296.1,347z"/>
<polygon class="st1" points="296.6,348.5 296.1,347 296.6,347.4 "/>
<path class="st1" d="M362.6,170.5l-20.8,1.6c4.5-1.4,9.1-2.1,14-2.1C358.1,170,360.4,170.2,362.6,170.5z"/>
<g>
	<path class="st3" d="M266.6,545.2c-17.6,9-11.3,92.9,28.1,86.2c41.7-7,37.9-65.1,33.4-41.5c-7.8,40.5,11.6,28-14.9-52.1
		C306.7,518.2,294.2,531.2,266.6,545.2z"/>
	<path class="st3" d="M96.5,237.8c0,28.9,14.7,54.4,54.2,47.7c41.7-7,73.5-3.9,72.3-27.9c-1.4-28.8-14.1-72.1-54.1-72.1
		S96.5,208.9,96.5,237.8z"/>
	<path class="st4" d="M224.8,275.4l-73.9,10.1c0,0-0.1,0-0.2,0c6-0.7,11.9-2.4,17-5.5c10.6-6.6,15.1-21.4,8.2-32.4
		c-4.9-7.7-14.9-9.7-23.3-11.1c-1.3-0.2-3.1-0.8-4.5-0.6c23.4-3,44.7-4.5,71.7-6.2"/>
	<path class="st5" d="M294.7,631.5c-46.5,20.2-93.1-18.7-106.1-62.5c-17.2-58.1-17.1-123.4,3-180.8c7.7-22,20.8-42.4,26.5-64.8
		c3.6-14.4,6-29.1,6.6-43.9c0.6-14.3,0.2-29.9-3.2-43.9c-11.1-44.6-77.1-68.3-109.8-32.8c-13.4,14.6-19.1,38.9-12.4,57.7
		c5.3,14.9,22.3,23,36.9,24.9c7.1,0.9,14.9,0.7,22.1-1.3"/>
	<path class="st5" d="M287.1,588.7c-2.5,2.1-8.6,1.4-12.8-0.2c-11.6-4.4-16.4-17.5-14.9-29.2c1.2-9.6,12.5-21.5,21.7-25.4"/>
	<path class="st4" d="M288.8,633.7l192.5-43.8c47-58.4-6.8-82.9-6.8-82.9l-187.6,26.3c0,0-3.3,0.5-8.1,1.1
		c21.9-6.8,38.8,17.5,45.2,35.7c9.9,28.3-1.9,49.4-29.2,61.3"/>
	<path class="st5" d="M145.7,185.9l228.6-16.3c0,0,86.4,29,72.6,154.2c-3.3,29.5-6.7,59-9.3,88.6c-1.3,14.8-2.4,29.6-3.2,44.4
		c-0.6,12-2,23.4,2.3,35c2.6,7,6.6,13.5,11.9,18.7"/>
	<path class="st4" d="M326.6,580c0,0-43.1,9.9-43.1,9.9c5.3-0.5,8-4.1-1.8-14.4l41.7-8.4"/>
</g>
<rect x="255.1" y="307.9" transform="matrix(0.9994 -3.400074e-02 3.400074e-02 0.9994 -13.019 11.6378)" class="st6" width="161.2" height="161.4"/>
<text transform="matrix(1 0 0 1 220.4951 460.0043)" class="st7 st8 st9">!!!</text>
<text transform="matrix(1 0 0 1 220.4951 460.0043)" class="st10 st8 st9">!!!</text>
</svg>
