<?xml version="1.0" encoding="utf-8"?>
<!-- Generator: Adobe Illustrator 27.4.1, SVG Export Plug-In . SVG Version: 6.00 Build 0)  -->
<svg version="1.1" id="Layer_1" xmlns="http://www.w3.org/2000/svg" xmlns:xlink="http://www.w3.org/1999/xlink" x="0px" y="0px"
	 viewBox="0 0 612 792" style="enable-background:new 0 0 612 792;" xml:space="preserve">
<style type="text/css">
	.st0{fill:#7CA0AE;stroke:#000000;stroke-width:6;stroke-miterlimit:10;}
	.st1{fill:#FAC3BA;stroke:#333333;stroke-width:6;stroke-miterlimit:10;}
</style>
<circle class="st0" cx="304" cy="396.5" r="296"/>
<ellipse class="st1" cx="305" cy="200" rx="52" ry="49"/>
<path class="st1" d="M316.34,261.79c10.96,1.43,23.04,2.18,31.55,10.8c9.84,9.96,15.52,24.85,23.55,36.25
	c13.28,18.86,26.57,37.72,39.85,56.59c8.94,12.7,24.08,37.84,3.29,47.6c-31.89,14.97-50.09-46.04-61.87-64.87
	c-0.38,13.69-0.11,26.92,0.63,40.58c2.17,39.66,4.73,80.92,6.91,121.2c1.31,24.26,1.87,48.62,3.91,72.84
	c1.22,14.51,3.47,47.62-19.54,47.32c-9.81-0.13-16.83-8.25-19.72-17.02c-2.16-6.57-2.45-13.58-2.76-20.48
	c-1.09-24.36-3.16-48.67-5.37-72.95c-1.18-12.95-2.41-25.89-3.56-38.85c-0.71-8.13,1.02-16.98-1.28-24.93
	c-2.19-7.6-6.13-9.49-11.5-4.03c-5.48,5.58-2.6,18.6-3.19,25.45c-1.13,13.03-2.36,26.05-3.56,39.07
	c-2.39,26.05-4.68,52.12-5.86,78.25c-0.31,6.91-0.59,13.92-2.76,20.48c-2.89,8.77-9.91,16.89-19.72,17.02
	c-23.01,0.3-20.76-32.81-19.54-47.32c2.04-24.21,2.59-48.57,3.91-72.84c2.18-40.28,4.74-81.54,6.91-121.2
	c0.75-13.66,1.01-26.89,0.63-40.58c-11.79,18.83-29.98,79.84-61.87,64.87c-20.79-9.76-5.65-34.9,3.29-47.6
	c13.28-18.86,26.57-37.72,39.85-56.59c9.27-13.17,18.4-33.21,31.4-42.98C282.32,258.56,299.58,259.6,316.34,261.79z"/>
</svg>
