<?xml version="1.0" encoding="utf-8"?>
<!-- Generator: Adobe Illustrator 27.4.1, SVG Export Plug-In . SVG Version: 6.00 Build 0)  -->
<!DOCTYPE svg PUBLIC "-//W3C//DTD SVG 1.1//EN" "http://www.w3.org/Graphics/SVG/1.1/DTD/svg11.dtd" [
	<!ENTITY st0 "fill:#C3D9E0;stroke:#000000;stroke-width:6;stroke-miterlimit:10;">
	<!ENTITY st1 "fill:none;stroke:#231F20;stroke-width:6;stroke-miterlimit:10;">
	<!ENTITY st2 "fill:#F2E8DA;stroke:#231F20;stroke-width:6;stroke-miterlimit:10;">
	<!ENTITY st3 "fill:#F46642;stroke:#000000;stroke-width:3;stroke-miterlimit:10;">
	<!ENTITY st4 "fill:none;stroke:#231F20;stroke-width:3;stroke-miterlimit:10;">
	<!ENTITY st5 "stroke:#FFC4B9;stroke-width:6;stroke-miterlimit:10;">
	<!ENTITY st6 "fill:#231F20;">
	<!ENTITY st7 "fill:#7CA0AE;stroke:#000000;stroke-width:3;stroke-miterlimit:10;">
	<!ENTITY st8 "fill:#FFC4B9;stroke:#000000;stroke-width:3;stroke-miterlimit:10;">
	<!ENTITY st9 "fill:#E6D1B6;stroke:#231F20;stroke-width:3;stroke-miterlimit:10;">
	<!ENTITY st10 "fill:#FFC4B9;stroke:#000000;stroke-width:6;stroke-miterlimit:10;">
]>
<svg version="1.1" id="Layer_1" xmlns="http://www.w3.org/2000/svg" xmlns:xlink="http://www.w3.org/1999/xlink" x="0px" y="0px"
	 viewBox="0 0 711.9 745.3" style="enable-background:new 0 0 711.9 745.3;" xml:space="preserve">
<rect style="&st0;" width="711.9" height="745.3"/>
<line style="&st1;" x1="123.5" y1="221.1" x2="584.1" y2="221.1"/>
<path style="&st2;" d="M157,337.6h-55.1c-11.6,0-21-9.4-21-21v-55.1c0-11.6,9.4-21,21-21H157c11.6,0,21,9.4,21,21v55.1
	C178,328.2,168.6,337.6,157,337.6z"/>
<path style="&st2;" d="M268.5,337.6h-55.1c-11.6,0-21-9.4-21-21v-55.1c0-11.6,9.4-21,21-21h55.1c11.6,0,21,9.4,21,21v55.1
	C289.5,328.2,280.1,337.6,268.5,337.6z"/>
<path style="&st2;" d="M380,337.6h-55.1c-11.6,0-21-9.4-21-21v-55.1c0-11.6,9.4-21,21-21H380c11.6,0,21,9.4,21,21v55.1
	C401,328.2,391.6,337.6,380,337.6z"/>
<path style="&st2;" d="M491.5,337.6h-55.1c-11.6,0-21-9.4-21-21v-55.1c0-11.6,9.4-21,21-21h55.1c11.6,0,21,9.4,21,21v55.1
	C512.5,328.2,503.1,337.6,491.5,337.6z"/>
<path style="&st2;" d="M603,337.6h-55.1c-11.6,0-21-9.4-21-21v-55.1c0-11.6,9.4-21,21-21H603c11.6,0,21,9.4,21,21v55.1
	C624,328.2,614.6,337.6,603,337.6z"/>
<path style="&st2;" d="M158.2,448.7h-55.1c-11.6,0-21-9.4-21-21v-55.1c0-11.6,9.4-21,21-21h55.1c11.6,0,21,9.4,21,21v55.1
	C179.2,439.3,169.8,448.7,158.2,448.7z"/>
<path style="&st2;" d="M269.7,448.7h-55.1c-11.6,0-21-9.4-21-21v-55.1c0-11.6,9.4-21,21-21h55.1c11.6,0,21,9.4,21,21v55.1
	C290.7,439.3,281.3,448.7,269.7,448.7z"/>
<path style="&st2;" d="M381.2,448.7h-55.1c-11.6,0-21-9.4-21-21v-55.1c0-11.6,9.4-21,21-21h55.1c11.6,0,21,9.4,21,21v55.1
	C402.2,439.3,392.8,448.7,381.2,448.7z"/>
<path style="&st2;" d="M492.7,448.7h-55.1c-11.6,0-21-9.4-21-21v-55.1c0-11.6,9.4-21,21-21h55.1c11.6,0,21,9.4,21,21v55.1
	C513.7,439.3,504.3,448.7,492.7,448.7z"/>
<path style="&st2;" d="M604.2,448.7h-55.1c-11.6,0-21-9.4-21-21v-55.1c0-11.6,9.4-21,21-21h55.1c11.6,0,21,9.4,21,21v55.1
	C625.2,439.3,615.8,448.7,604.2,448.7z"/>
<path style="&st2;" d="M158.2,561.3h-55.1c-11.6,0-21-9.4-21-21v-55.1c0-11.6,9.4-21,21-21h55.1c11.6,0,21,9.4,21,21v55.1
	C179.2,551.9,169.8,561.3,158.2,561.3z"/>
<path style="&st2;" d="M269.7,561.3h-55.1c-11.6,0-21-9.4-21-21v-55.1c0-11.6,9.4-21,21-21h55.1c11.6,0,21,9.4,21,21v55.1
	C290.7,551.9,281.3,561.3,269.7,561.3z"/>
<path style="&st2;" d="M381.2,561.3h-55.1c-11.6,0-21-9.4-21-21v-55.1c0-11.6,9.4-21,21-21h55.1c11.6,0,21,9.4,21,21v55.1
	C402.2,551.9,392.8,561.3,381.2,561.3z"/>
<path style="&st2;" d="M492.7,561.3h-55.1c-11.6,0-21-9.4-21-21v-55.1c0-11.6,9.4-21,21-21h55.1c11.6,0,21,9.4,21,21v55.1
	C513.7,551.9,504.3,561.3,492.7,561.3z"/>
<path style="&st2;" d="M604.2,561.3h-55.1c-11.6,0-21-9.4-21-21v-55.1c0-11.6,9.4-21,21-21h55.1c11.6,0,21,9.4,21,21v55.1
	C625.2,551.9,615.8,561.3,604.2,561.3z"/>
<path style="&st2;" d="M158.2,671.3h-55.1c-11.6,0-21-9.4-21-21v-55.1c0-11.6,9.4-21,21-21h55.1c11.6,0,21,9.4,21,21v55.1
	C179.2,661.9,169.8,671.3,158.2,671.3z"/>
<path style="&st2;" d="M269.7,671.3h-55.1c-11.6,0-21-9.4-21-21v-55.1c0-11.6,9.4-21,21-21h55.1c11.6,0,21,9.4,21,21v55.1
	C290.7,661.9,281.3,671.3,269.7,671.3z"/>
<path style="&st2;" d="M381.2,671.3h-55.1c-11.6,0-21-9.4-21-21v-55.1c0-11.6,9.4-21,21-21h55.1c11.6,0,21,9.4,21,21v55.1
	C402.2,661.9,392.8,671.3,381.2,671.3z"/>
<path style="&st2;" d="M492.7,671.3h-55.1c-11.6,0-21-9.4-21-21v-55.1c0-11.6,9.4-21,21-21h55.1c11.6,0,21,9.4,21,21v55.1
	C513.7,661.9,504.3,671.3,492.7,671.3z"/>
<path style="&st2;" d="M604.2,671.3h-55.1c-11.6,0-21-9.4-21-21v-55.1c0-11.6,9.4-21,21-21h55.1c11.6,0,21,9.4,21,21v55.1
	C625.2,661.9,615.8,671.3,604.2,671.3z"/>
<path style="&st3;" d="M391.9,191.8c0,7.7-7.1,14-15.9,14c-2.6,0-5.1-0.5-7.2-1.5c-2,1.2-4.4,1.8-7,1.8c-7.8,0-14.2-6.3-14.2-14.2
	s6.3-14.1,14.2-14.1c2.4,0,4.7,0.6,6.7,1.7c2.2-1.1,4.8-1.7,7.5-1.7C384.8,177.8,391.9,184,391.9,191.8z"/>
<line style="&st4;" x1="367.6" y1="164.3" x2="368.5" y2="179.4"/>
<line style="&st5;" x1="338.4" y1="221" x2="403.2" y2="220.4"/>
<path style="&st6;" d="M251.7,179.7c-3.2,2.8-6.4,5.6-9.5,8.4c-2.1,1.9-4.2,3.7-6.3,5.6c-0.5,0.4-2.2,1.5-2.4,2.1
	c-0.4,1.3,0,2.5,0.4,3.6c0.6,1.3-0.8,2.6-2.1,2c-1.3-0.6-2.5-1.2-4-1.3c-0.3,0-0.6,0-0.8,0.1c-0.7,0.3-1,1.9-1.4,2.5
	c-0.6,0.8-1.4,1.5-2.4,1.8c-2.3,0.5-4.3-1.3-4.5-3.5c-0.2-2.3,1.7-3.5,3.7-4.4c0.4-0.2,0.3-0.8,0.3-1.2c0-0.4-0.2-0.8-0.3-1.1
	c-0.8-1.8-1.9-3.6-2.5-5.5c-0.1-0.3,0.1-0.5,0.4-0.5c1.2,0,4.1-0.4,4.5-0.4c2.7-0.4,3.8-2.5,5.4-4.5c3.2-3.9,6.5-7.7,9.7-11.6h11.9
	C251.7,171.6,251.7,179.7,251.7,179.7z"/>
<path style="&st7;" d="M306.5,175.1c-0.2,0.3-0.4,0.5-0.6,0.6c-1.5,1.5-4.3,2.5-6.4,2.2c-3.7-0.6-6.6-3.6-8.8-6.3
	c0,0-12.4,10.2-12.4,10.2l6.5,7.7l3.8-2.6l-0.4,16.7h23.6l-0.5-14.2l10.1-7.4c0,0-13.8-11.1-13.9-11.2
	C308.6,171.9,307.4,173.9,306.5,175.1z"/>
<g>
	<path style="&st8;" d="M507.2,192.1l-14-5l-0.1-0.3l-0.8-0.3l0-0.1l0.6-0.3l0.8-0.4l-0.4-0.2l13.4-6.1
		C506.7,179.6,519.3,179.8,507.2,192.1z"/>
	<path style="&st8;" d="M492.4,186.8l0.8,0.3l4.3,12.7c0,0-1.4,12.5-12.5-0.8l5.5-11.5l0,0v-0.1l0.2-0.3l-0.2,0.1l-0.2,0.1
		l-11.9,4.8c0,0-12.6-0.7,0.1-12.5l7.3,3l-6.8-7c0,0-4.1-11.9,11.6-4.6v13.6l1.2,0.5l0.5-1l0.5,1.4l0.5,0.2l-0.4-16.4
		c0,0,5.1-11.5,11.7,4.5l-11.1,12l0,0l-0.3,0.1l0.1,0.1l-0.9,0.4l0.1,0.2l-0.1,0l0,0l0.1,0L492.4,186.8z"/>
</g>
<path style="&st9;" d="M432,204.2c-1.3,1.7-3.8,2.1-5.5,0.8c-1.7-1.3-2.1-3.8-0.8-5.5c0.3-0.4,0.6-0.6,0.9-0.9l-2.2-1.6
	c-0.1,0.1-0.1,0.2-0.2,0.3c-1.3,1.7-3.8,2.1-5.5,0.8c-1.7-1.3-2.1-3.8-0.8-5.5c1.3-1.7,3.8-2.1,5.5-0.8c0.3,0.2,0.5,0.4,0.7,0.7
	l13.3-17.6c-0.7,0-1.5-0.3-2.1-0.8c-1.7-1.3-2.1-3.8-0.8-5.5c1.3-1.7,3.8-2.1,5.5-0.8c1.7,1.3,2.1,3.8,0.8,5.5
	c-0.1,0.1-0.2,0.2-0.3,0.3l2,1.5c1.4-1.4,3.6-1.6,5.2-0.4c1.7,1.3,2.1,3.8,0.8,5.5c-1.3,1.7-3.8,2.1-5.5,0.8
	c-0.2-0.1-0.3-0.3-0.4-0.4L429.5,198c0.6,0.1,1.2,0.3,1.7,0.7C433,200,433.3,202.5,432,204.2z"/>
<g>
	<g>
		<path d="M352,145.7h7l-0.4,2.1H354l-0.6,2.9h3.8l-0.4,2.1H353l-1,4.7h-2.5L352,145.7z"/>
		<path d="M358.7,153.9c0-3.4,2.5-5.7,5-5.7c2.1,0,3.5,1.5,3.5,3.7c0,3.4-2.5,5.7-5,5.7C360.1,157.6,358.7,156.2,358.7,153.9z
			 M364.7,152c0-1.1-0.4-1.7-1.2-1.7c-1.2,0-2.2,1.6-2.2,3.7c0,1.1,0.4,1.7,1.2,1.7C363.6,155.6,364.7,154.1,364.7,152z"/>
		<path d="M368.3,153.9c0-3.4,2.5-5.7,5-5.7c2.1,0,3.5,1.5,3.5,3.7c0,3.4-2.5,5.7-5,5.7C369.7,157.6,368.3,156.2,368.3,153.9z
			 M374.3,152c0-1.1-0.4-1.7-1.2-1.7c-1.2,0-2.2,1.6-2.2,3.7c0,1.1,0.4,1.7,1.2,1.7C373.2,155.6,374.3,154.1,374.3,152z"/>
		<path d="M384.8,147.6l0.6-2.9h2.5l-2.5,12.6h-2l0-1.2h0c-0.8,0.8-1.9,1.4-2.8,1.4c-1.6,0-2.5-1.2-2.5-3.3c0-3.4,2.3-6.1,4.8-6.1
			c0.8,0,1.5,0.4,1.8,1.1h0L384.8,147.6z M383.4,154.3l0.6-3.2c-0.3-0.6-0.8-0.9-1.2-0.9c-1.2,0-2.4,1.6-2.4,3.8
			c0,1.1,0.4,1.6,1,1.6C382.1,155.6,382.8,155.3,383.4,154.3z"/>
	</g>
</g>
<path style="&st10;" d="M495.8,120.1H199.5c-11.6,0-21-9.4-21-21V67.2c0-11.6,9.4-21,21-21h296.3c11.6,0,21,9.4,21,21v31.8
	C516.8,110.7,507.4,120.1,495.8,120.1z"/>
<g>
	<g>
		<path d="M287.1,70h4.9v21.5h-4.9V70z"/>
		<path d="M294.9,75.1h4.9l2.1,7.7c0.4,1.6,0.9,3.3,1.3,5h0.1c0.4-1.7,0.9-3.4,1.3-5l2.1-7.7h4.6L306,91.5h-5.6L294.9,75.1z"/>
		<path d="M312.9,83.3c0-5.3,3.8-8.6,7.7-8.6c4.7,0,7,3.4,7,7.9c0,0.9-0.1,1.7-0.2,2.1h-9.8c0.4,2.4,2.1,3.5,4.2,3.5
			c1.2,0,2.4-0.4,3.5-1.1l1.6,2.9c-1.7,1.2-3.9,1.8-5.8,1.8C316.5,91.9,312.9,88.8,312.9,83.3z M323.5,81.5c0-1.8-0.8-3.1-2.7-3.1
			c-1.5,0-2.9,1-3.2,3.1H323.5z"/>
		<path d="M331,75.1h4l0.3,2.1h0.1c1.4-1.3,3-2.5,5.3-2.5c3.6,0,5.1,2.5,5.1,6.6v10.2h-4.9V82c0-2.4-0.6-3.1-2-3.1
			c-1.2,0-2,0.6-3,1.6v11H331V75.1z"/>
		<path d="M350.5,85.6v-6.6h-2.2v-3.6l2.5-0.2l0.6-4.3h4v4.3h3.9v3.8h-3.9v6.6c0,1.9,0.8,2.6,2.1,2.6c0.5,0,1.1-0.2,1.6-0.3l0.8,3.5
			c-0.9,0.3-2.1,0.6-3.6,0.6C352.1,91.9,350.5,89.4,350.5,85.6z"/>
		<path d="M361.5,83.3c0-5.4,3.8-8.6,8-8.6c4.1,0,8,3.1,8,8.6c0,5.4-3.8,8.6-8,8.6C365.4,91.9,361.5,88.8,361.5,83.3z M372.5,83.3
			c0-2.8-1-4.7-3-4.7s-3,1.8-3,4.7c0,2.8,1,4.7,3,4.7S372.5,86.2,372.5,83.3z"/>
		<path d="M380.8,75.1h4l0.3,2.9h0.1c1.2-2.2,3-3.3,4.7-3.3c0.9,0,1.5,0.1,2,0.3l-0.8,4.2c-0.6-0.1-1.1-0.3-1.8-0.3
			c-1.2,0-2.7,0.8-3.6,3v9.5h-4.9V75.1z"/>
		<path d="M393.4,97.6l0.9-3.7c0.3,0.1,0.7,0.2,1.1,0.2c1.6,0,2.4-0.9,2.9-2.1l0.2-0.9l-6.3-16h4.9l2.3,7c0.5,1.5,0.9,3,1.3,4.6h0.1
			c0.4-1.5,0.7-3.1,1.1-4.6l2-7h4.6l-5.7,16.6c-1.6,4.1-3.3,6.2-7.1,6.2C394.8,97.9,394.1,97.8,393.4,97.6z"/>
	</g>
</g>
<g>
	<path style="&st7;" d="M143.3,295.5l-14-5l-0.1-0.3l-0.8-0.3l0-0.1l0.6-0.3l0.8-0.4l-0.4-0.2l13.4-6.1
		C142.9,283,155.5,283.1,143.3,295.5z"/>
	<path style="&st7;" d="M128.5,290.2l0.8,0.3l4.3,12.7c0,0-1.4,12.5-12.5-0.8l5.5-11.5l0,0v-0.1l0.2-0.3l-0.2,0.1l-0.2,0.1
		l-11.9,4.8c0,0-12.6-0.7,0.1-12.5l7.3,3l-6.8-7c0,0-4.1-11.9,11.6-4.6v13.6l1.2,0.5l0.5-1l0.5,1.4l0.5,0.2l-0.4-16.4
		c0,0,5.1-11.5,11.7,4.5l-11.1,12l0,0l-0.3,0.1l0.1,0.1l-0.9,0.4l0.1,0.2l-0.1,0l0,0l0.1,0L128.5,290.2z"/>
</g>
<g>
	<g>
		<path d="M148.3,325.2l1.8-2.4c1,1,2.2,1.7,3.6,1.7c1.6,0,2.7-0.7,2.7-2c0-1.4-0.8-2.3-4.4-2.3v-2.7c3,0,3.9-0.9,3.9-2.2
			c0-1.2-0.7-1.8-2-1.8c-1.2,0-2.1,0.5-3.1,1.4l-1.9-2.3c1.5-1.3,3.2-2.1,5.2-2.1c3.4,0,5.7,1.6,5.7,4.5c0,1.7-1,2.9-2.8,3.7v0.1
			c1.9,0.5,3.3,1.9,3.3,4c0,3.1-2.8,4.8-6.1,4.8C151.4,327.5,149.6,326.6,148.3,325.2z"/>
	</g>
</g>
</svg>
