<?xml version="1.0" encoding="utf-8"?>
<!-- Generator: Adobe Illustrator 27.4.1, SVG Export Plug-In . SVG Version: 6.00 Build 0)  -->
<svg version="1.1" id="Layer_1" xmlns="http://www.w3.org/2000/svg" xmlns:xlink="http://www.w3.org/1999/xlink" x="0px" y="0px"
	 viewBox="0 0 412.85 481.08" style="enable-background:new 0 0 412.85 481.08;" xml:space="preserve">
<style type="text/css">
	.st0{fill:#E6D1B6;}
	.st1{display:none;fill:none;stroke:#000000;stroke-width:3;stroke-miterlimit:10;}
	.st2{fill:#B6A793;}
	.st3{fill:#E6D1B6;stroke:#000000;stroke-width:6;stroke-miterlimit:10;}
	.st4{fill:none;stroke:#000000;stroke-width:6;stroke-miterlimit:10;}
	.st5{fill:none;}
	.st6{fill:#F16642;}
	.st7{font-family:'ArialMT';}
	.st8{font-size:218px;}
	.st9{fill:none;stroke:#231F20;stroke-width:6;stroke-miterlimit:10;}
</style>
<path class="st0" d="M344.67,335.45c-0.76-3.77-1.51-7.54-2.27-11.31c-0.23-4.01-0.04-8.07,0.13-11.91
	c0.74-16.77,2.51-33.48,1.3-50.15c2.11-0.83,3.59-2.88,2.58-5.66c-1.06-2.92,0.96-6.07,1.37-9.02c0.38-2.7,0.2-5.52-1.18-7.94
	c-0.29-0.51-0.62-0.98-0.98-1.4c8.81-38.69,12.01-84.04,12.01-111.32c0-47.18-34.82-100.72-73.56-114.77
	c-4.06-1.47-8.16-2.51-12.27-3.05l-20.82,1.64L81.16,23.94l39.96,23.49l11.22,24.66c-0.39,21.26,0.18,53.44-1.9,81.04
	c-17.87,37.39-50.75,120.32-40.1,206.39c-0.12,2.28-0.18,4.58-0.18,6.89c0,60.18,39.4,108.97,88,108.97s88-48.79,88-108.97
	c2.47,3.99,73.15-9.94,73.15-14.68c1.35,2.33,3.13,4.4,5.52,6.22c1.86,1.41,4.5,0.53,6.06-0.78c7.89-6.62-1.93-13.47-5.03-19.17
	C345.41,337.17,345.02,336.31,344.67,335.45z M205.23,185.39l0.51,0.42l0.03,1.11L205.23,185.39z"/>
<path class="st1" d="M220.63,364.13l-41.67,8.43c15.14,15.9,0.43,15.93-7.33,13.03c-11.62-4.36-16.38-17.54-14.87-29.2
	c1.24-9.63,7.23-19.85,16.44-23.76c23.31-9.91,41.42,15.71,48.05,34.66c9.88,28.26-1.88,49.4-29.21,61.29
	c-46.49,20.21-93.12-18.73-106.08-62.51c-17.2-58.11-17.13-123.37,3-180.79c7.72-22.01,20.81-42.38,26.5-64.82
	c3.64-14.36,5.96-29.08,6.63-43.89c0.65-14.34,0.24-29.95-3.24-43.94C107.74-12.01,41.75-35.66,9.01-0.16
	C-4.44,14.42-10.07,38.7-3.39,57.57c5.26,14.86,22.29,23.02,36.9,24.87c10.36,1.31,22.33,0.33,31.46-5.36
	c10.58-6.59,15.12-21.4,8.21-32.35c-4.86-7.7-14.94-9.67-23.27-11.06c-1.33-0.22-3.11-0.76-4.47-0.59
	c23.44-2.99,44.65-4.47,71.67-6.17"/>
<path class="st1" d="M184.2,330.44l187.61-26.33c0,0,53.81,24.47,6.8,82.9L186.1,430.84"/>
<path class="st1" d="M42.96-16.99l228.59-16.33c0,0,86.43,29.04,72.6,154.2c-3.26,29.53-6.69,59.05-9.32,88.65
	c-1.31,14.79-2.43,29.6-3.22,44.42c-0.64,12.05-2.03,23.38,2.26,35.01c2.58,6.99,6.61,13.45,11.89,18.72"/>
<line class="st1" x1="48.18" y1="82.55" x2="122.05" y2="72.46"/>
<line class="st1" x1="180.76" y1="387" x2="223.87" y2="377.12"/>
<g>
	<path class="st2" d="M175.37,383.3c-17.56,8.95-11.31,92.86,28.13,86.21c41.68-7.03,37.91-65.06,33.41-41.53
		c-7.75,40.53,11.58,27.99-14.93-52.07C215.48,356.29,202.91,369.25,175.37,383.3z"/>
	<path class="st2" d="M5.25,75.81c0,28.86,14.73,54.36,54.17,47.71c41.68-7.03,73.5-3.93,72.32-27.85
		c-1.43-28.83-14.07-72.12-54.06-72.12S5.25,46.95,5.25,75.81z"/>
	<path class="st3" d="M133.51,113.4l-73.87,10.09c0,0-0.08,0.01-0.23,0.03c6.03-0.67,11.95-2.38,17-5.53
		c10.58-6.59,15.12-21.4,8.21-32.35c-4.86-7.7-14.94-9.67-23.27-11.06c-1.33-0.22-3.11-0.76-4.47-0.59
		c23.44-2.99,44.65-4.47,71.67-6.17"/>
	<path class="st4" d="M203.49,469.51C157,489.72,110.37,450.78,97.41,407c-17.2-58.11-17.13-123.37,3-180.79
		c7.72-22.01,20.81-42.38,26.5-64.82c3.64-14.36,5.96-29.08,6.63-43.89c0.65-14.34,0.24-29.95-3.24-43.94
		C119.19,28.92,53.2,5.27,20.46,40.77C7.01,55.35,1.38,79.63,8.06,98.5c5.26,14.86,22.29,23.02,36.9,24.87
		c7.09,0.9,14.93,0.72,22.1-1.3"/>
	<path class="st4" d="M195.86,426.71c-2.51,2.08-8.63,1.37-12.77-0.18c-11.62-4.36-16.38-17.54-14.87-29.2
		c1.24-9.63,12.47-21.51,21.68-25.42"/>
	<path class="st3" d="M197.56,471.77l192.51-43.83c47.02-58.43-6.8-82.9-6.8-82.9l-187.61,26.33c0,0-3.32,0.47-8.14,1.14
		c21.92-6.75,38.83,17.54,45.18,35.7c9.88,28.26-1.88,49.4-29.21,61.29"/>
	<path class="st4" d="M54.42,23.95L283.01,7.62c0,0,86.43,29.04,72.6,154.2c-3.26,29.53-6.69,59.05-9.32,88.65
		c-1.31,14.79-2.43,29.6-3.22,44.42c-0.64,12.05-2.03,23.38,2.26,35.01c2.58,6.99,6.61,13.45,11.89,18.72"/>
	<path class="st3" d="M235.34,418.06c0,0-43.11,9.89-43.12,9.89c5.28-0.48,8.05-4.11-1.79-14.44l41.67-8.43"/>
</g>
<rect x="168.79" y="85.19" transform="matrix(0.9994 -0.034 0.034 0.9994 -5.4959 8.5751)" class="st5" width="161.19" height="161.39"/>
<text transform="matrix(1 0 0 1 171.2082 237.2774)" class="st6 st7 st8">...</text>
<text transform="matrix(1 0 0 1 171.2082 237.2774)" class="st9 st7 st8">...</text>
</svg>
